<svg width="30" height="20" viewBox="0 0 30 20" fill="none" xmlns="http://www.w3.org/2000/svg">
    <path d="M18.8 3.14258H11.0234V17.1781H18.8V3.14258Z" fill="#FF5F00"/>
    <path d="M11.5159 10.1612C11.5144 8.80932 11.8193 7.4748 12.4074 6.25873C12.9956 5.04266 13.8515 3.97693 14.9104 3.14223C13.5993 2.10741 12.0247 1.46391 10.3667 1.28529C8.70862 1.10667 7.03397 1.40013 5.53413 2.13213C4.03429 2.86413 2.76977 4.00513 1.88509 5.42474C1.0004 6.84435 0.53125 8.48528 0.53125 10.16C0.53125 11.8347 1.0004 13.4757 1.88509 14.8953C2.76977 16.3149 4.03429 17.4559 5.53413 18.1879C7.03397 18.9199 8.70862 19.2133 10.3667 19.0347C12.0247 18.8561 13.5993 18.2126 14.9104 17.1778C13.8518 16.3433 12.9961 15.278 12.408 14.0624C11.8199 12.8468 11.5148 11.5127 11.5159 10.1612Z" fill="#EB001B"/>
    <path d="M29.2906 10.1623C29.2906 11.8371 28.8213 13.4782 27.9365 14.8978C27.0517 16.3175 25.7869 17.4585 24.2869 18.1903C22.7869 18.9222 21.1121 19.2155 19.4539 19.0366C17.7958 18.8578 16.2212 18.2139 14.9102 17.1788C15.9683 16.3436 16.8238 15.278 17.4121 14.0623C18.0003 12.8466 18.306 11.5127 18.306 10.161C18.306 8.80941 18.0003 7.47543 17.4121 6.25975C16.8238 5.04407 15.9683 3.97844 14.9102 3.14326C16.2212 2.10812 17.7958 1.46431 19.4539 1.28543C21.1121 1.10655 22.7869 1.39982 24.2869 2.13172C25.7869 2.86361 27.0517 4.0046 27.9365 5.42426C28.8213 6.84391 29.2906 8.48495 29.2906 10.1598V10.1623Z" fill="#F79E1B"/>
    <path d="M28.4434 15.6909V15.4033H28.5594V15.3438H28.2656V15.4033H28.3915V15.6909H28.4434ZM29.0137 15.6909V15.3438H28.9248L28.8211 15.5917L28.7174 15.3438H28.6384V15.6909H28.7026V15.4305L28.7989 15.6561H28.8655L28.9618 15.4305V15.6933L29.0137 15.6909Z" fill="#F79E1B"/>
</svg>
