<svg width="38" height="17" viewBox="0 0 38 17" fill="none" xmlns="http://www.w3.org/2000/svg">
    <path fill-rule="evenodd" clip-rule="evenodd" d="M37.8376 8.88157C37.8376 6.22943 36.5407 4.13672 34.0618 4.13672C31.5725 4.13672 30.0664 6.22942 30.0664 8.86085C30.0664 11.9792 31.8445 13.5539 34.3965 13.5539C35.6412 13.5539 36.5825 13.2742 37.2937 12.8805V10.8085C36.5825 11.1608 35.7667 11.3783 34.7312 11.3783C33.7167 11.3783 32.8172 11.0261 32.7021 9.8036H37.8167C37.8167 9.66892 37.8376 9.13021 37.8376 8.88157ZM32.6708 7.89737C32.6708 6.7267 33.3924 6.23978 34.0514 6.23978C34.6894 6.23978 35.3692 6.7267 35.3692 7.89737H32.6708Z" fill="#32325D"/>
    <path fill-rule="evenodd" clip-rule="evenodd" d="M26.0339 4.13672C25.0089 4.13672 24.3499 4.61328 23.9839 4.94479L23.8479 4.30248H21.5469V16.3822L24.1617 15.8331L24.1721 12.9012C24.5487 13.1706 25.103 13.5539 26.0234 13.5539C27.8956 13.5539 29.6005 12.0621 29.6005 8.77797C29.59 5.77359 27.8642 4.13672 26.0339 4.13672ZM25.4063 11.2747C24.7892 11.2747 24.4232 11.0572 24.1721 10.7878L24.1617 6.94426C24.4336 6.64382 24.8102 6.43662 25.4063 6.43662C26.3581 6.43662 27.017 7.49334 27.017 8.85049C27.017 10.2387 26.3686 11.2747 25.4063 11.2747Z" fill="#32325D"/>
    <path fill-rule="evenodd" clip-rule="evenodd" d="M17.9492 3.52578L20.5745 2.96635V0.863281L17.9492 1.41236V3.52578Z" fill="#32325D"/>
    <path d="M20.5745 4.3125H17.9492V13.3774H20.5745V4.3125Z" fill="#32325D"/>
    <path fill-rule="evenodd" clip-rule="evenodd" d="M15.1336 5.0788L14.9662 4.31216H12.707V13.3771H15.3218V7.23366C15.9389 6.43595 16.9849 6.58099 17.3091 6.69495V4.31216C16.9744 4.18785 15.7507 3.95993 15.1336 5.0788Z" fill="#32325D"/>
    <path fill-rule="evenodd" clip-rule="evenodd" d="M9.90626 2.06445L7.35421 2.60317L7.34375 10.9015C7.34375 12.4347 8.50472 13.564 10.0527 13.564C10.9103 13.564 11.5379 13.4086 11.8831 13.2221V11.119C11.5484 11.2537 9.8958 11.7303 9.8958 10.197V6.51922H11.8831V4.31256H9.8958L9.90626 2.06445Z" fill="#32325D"/>
    <path fill-rule="evenodd" clip-rule="evenodd" d="M2.83368 6.94426C2.83368 6.54022 3.16838 6.38482 3.72272 6.38482C4.51762 6.38482 5.5217 6.6231 6.3166 7.04786V4.61328C5.44849 4.2714 4.59083 4.13672 3.72272 4.13672C1.5995 4.13672 0.1875 5.23487 0.1875 7.06858C0.1875 9.92792 4.162 9.47208 4.162 10.7049C4.162 11.1815 3.74364 11.3369 3.15792 11.3369C2.2898 11.3369 1.18113 10.9846 0.302551 10.5081V12.9737C1.27526 13.3881 2.25843 13.5643 3.15792 13.5643C5.33344 13.5643 6.8291 12.4972 6.8291 10.6428C6.81865 7.5555 2.83368 8.10457 2.83368 6.94426Z" fill="#32325D"/>
</svg>
