<svg width="42" height="14" viewBox="0 0 42 14" fill="none" xmlns="http://www.w3.org/2000/svg">
    <g clip-path="url(#clip0)">
        <path d="M18.1992 13.7985H14.7969L16.9249 0.246094H20.327L18.1992 13.7985Z" fill="#00579F"/>
        <path d="M30.5341 0.576978C29.863 0.302765 28.7986 0 27.4825 0C24.1226 0 21.7566 1.84533 21.7421 4.4836C21.7142 6.43011 23.4361 7.51125 24.7239 8.16028C26.0402 8.82349 26.4877 9.25637 26.4877 9.84752C26.4743 10.7554 25.424 11.1739 24.4445 11.1739C23.0861 11.1739 22.3583 10.9582 21.2522 10.4531L20.8042 10.2365L20.3281 13.2787C21.1261 13.6532 22.5963 13.9854 24.1226 14C27.6925 14 30.0167 12.1832 30.0442 9.37172C30.0578 7.82896 29.1486 6.64684 27.1883 5.68087C25.9984 5.06077 25.2696 4.64265 25.2696 4.00819C25.2836 3.4314 25.886 2.84062 27.2293 2.84062C28.3353 2.81169 29.148 3.08552 29.7636 3.35954L30.0714 3.50345L30.5341 0.576978Z" fill="#00579F"/>
        <path d="M35.0549 8.99734C35.3351 8.21878 36.4133 5.2055 36.4133 5.2055C36.3991 5.23443 36.6929 4.41256 36.8609 3.90802L37.0987 5.07577C37.0987 5.07577 37.743 8.31976 37.8829 8.99734C37.3512 8.99734 35.7269 8.99734 35.0549 8.99734ZM39.2546 0.246094H36.623C35.8114 0.246094 35.1948 0.490988 34.8447 1.37054L29.791 13.7983H33.3609C33.3609 13.7983 33.9487 12.1256 34.075 11.7653C34.4666 11.7653 37.9394 11.7653 38.4433 11.7653C38.5409 12.2411 38.8492 13.7983 38.8492 13.7983H41.9994L39.2546 0.246094Z" fill="#00579F"/>
        <path d="M11.9566 0.246094L8.62464 9.48751L8.26054 7.61325C7.64453 5.45058 5.71259 3.1009 3.55664 1.93257L6.6086 13.7841H10.2064L15.5543 0.246094H11.9566Z" fill="#00579F"/>
        <path d="M5.52996 0.246094H0.0560008L0 0.519923C4.27003 1.64456 7.09799 4.35546 8.25987 7.61382L7.06989 1.38529C6.87398 0.519732 6.27193 0.274646 5.52996 0.246094Z" fill="#FAA61A"/>
    </g>
    <defs>
        <clipPath id="clip0">
            <rect width="42" height="14" fill="white"/>
        </clipPath>
    </defs>
</svg>
